<?xml version="1.0" standalone="no"?>
<!DOCTYPE svg PUBLIC "-//W3C//DTD SVG 20010904//EN"
 "http://www.w3.org/TR/2001/REC-SVG-20010904/DTD/svg10.dtd">
<svg version="1.0" xmlns="http://www.w3.org/2000/svg"
 width="620.000000pt" height="179.000000pt" viewBox="0 0 620.000000 179.000000"
 preserveAspectRatio="xMidYMid meet">

<g transform="translate(0.000000,179.000000) scale(0.100000,-0.100000)"
fill="#000000" stroke="none">
<path d="M580 1584 c-18 -21 -47 -68 -64 -104 -29 -60 -31 -73 -31 -172 0 -65
4 -111 11 -118 14 -14 72 62 111 146 24 51 27 72 27 154 0 52 -4 103 -10 113
-10 17 -14 15 -44 -19z"/>
<path d="M886 1611 c-4 -5 -9 -46 -13 -89 -8 -105 18 -195 83 -282 54 -74 60
-70 70 36 8 86 -13 177 -59 252 -38 63 -72 98 -81 83z"/>
<path d="M303 1474 c-4 -16 -8 -67 -7 -114 0 -75 4 -95 31 -153 40 -84 92
-152 107 -137 7 7 11 56 11 119 0 103 -1 110 -37 182 -20 40 -50 87 -67 103
l-30 29 -8 -29z"/>
<path d="M1164 1468 c-78 -89 -109 -180 -102 -305 2 -46 9 -88 14 -93 14 -14
88 87 115 158 23 61 30 204 12 250 l-9 24 -30 -34z"/>
<path d="M4281 1229 c-29 -17 -32 -23 -25 -47 4 -15 8 -121 10 -235 1 -115 5
-211 8 -214 3 -4 68 -6 144 -6 137 1 137 1 146 26 13 37 1 61 -27 51 -12 -4
-61 -9 -109 -11 l-88 -4 5 203 c3 112 8 211 11 220 3 10 -3 21 -15 27 -25 14
-20 14 -60 -10z"/>
<path d="M5047 1232 c-36 -25 -75 -78 -89 -123 -10 -34 -7 -45 40 -145 65
-140 68 -155 43 -178 -17 -16 -24 -16 -56 -6 -43 14 -58 5 -53 -31 2 -18 14
-28 44 -38 86 -30 139 20 139 129 0 54 -7 81 -43 162 -57 132 -50 163 45 176
40 6 49 11 51 30 6 40 -72 56 -121 24z"/>
<path d="M2085 1226 c-41 -12 -57 -38 -36 -59 15 -15 15 -356 0 -394 -8 -23
-7 -30 8 -41 10 -7 32 -12 48 -10 l30 3 -4 113 c-2 61 1 112 6 112 16 0 137
-75 262 -163 68 -48 134 -87 145 -87 29 0 66 27 66 48 0 11 -18 24 -53 37 -28
12 -118 63 -200 115 l-147 93 36 21 c105 59 103 167 -3 212 -39 17 -103 17
-158 0z m136 -56 c23 -13 25 -57 3 -88 -15 -22 -64 -52 -84 -52 -14 0 -3 118
12 138 13 15 43 16 69 2z"/>
<path d="M2820 1219 c-62 -25 -103 -90 -121 -194 -24 -140 7 -252 81 -294 50
-28 148 -38 175 -18 29 22 5 43 -55 49 -74 7 -115 53 -122 134 l-3 39 66 3
c50 2 71 8 84 22 27 30 10 40 -74 40 l-78 0 8 45 c10 56 33 101 58 115 11 5
38 10 61 10 44 0 61 19 40 45 -14 17 -81 19 -120 4z"/>
<path d="M3220 1219 c-62 -25 -103 -90 -121 -194 -24 -140 7 -252 81 -294 50
-28 148 -38 175 -18 29 22 5 43 -55 49 -74 7 -115 53 -122 134 l-3 39 66 3
c50 2 71 8 84 22 27 30 10 40 -74 40 l-78 0 8 45 c10 56 33 101 58 115 11 5
38 10 61 10 44 0 61 19 40 45 -14 17 -81 19 -120 4z"/>
<path d="M3511 1206 c-21 -22 -22 -29 -12 -57 7 -19 11 -110 11 -230 l0 -199
23 0 c39 0 47 18 47 112 0 48 4 88 8 88 5 0 58 -45 118 -100 60 -55 113 -100
117 -100 21 0 77 31 77 44 0 8 -19 24 -42 35 -44 21 -193 144 -193 159 0 13
171 169 193 176 12 4 22 13 22 20 0 18 -33 46 -55 46 -10 0 -69 -50 -132 -112
l-113 -112 0 35 c0 18 5 63 10 98 9 64 2 96 -24 113 -19 13 -32 9 -55 -16z"/>
<path d="M1707 1206 c-141 -39 -226 -191 -188 -333 26 -95 90 -137 206 -138
l79 0 9 -37 c10 -40 27 -53 50 -35 13 10 14 31 9 127 l-7 115 -27 3 c-23 3
-28 -1 -33 -25 -13 -58 -24 -72 -65 -84 -35 -11 -49 -10 -83 2 -51 17 -67 46
-67 119 0 88 47 174 118 217 45 28 76 29 109 4 20 -16 29 -18 48 -9 61 28 28
77 -56 83 -30 3 -76 -1 -102 -9z"/>
<path d="M4698 1191 c-30 -26 -31 -31 -20 -55 7 -17 12 -82 13 -174 0 -81 4
-169 7 -197 6 -44 10 -50 31 -50 35 0 39 24 42 271 2 178 0 217 -12 225 -21
13 -26 12 -61 -20z"/>
<path d="M5203 1184 c-2 -7 -3 -21 -1 -31 3 -15 15 -19 71 -21 62 -3 67 -5 73
-29 4 -14 4 -91 0 -172 l-7 -148 26 -31 c31 -37 82 -50 125 -32 21 9 30 19 30
36 0 20 -5 24 -33 24 -18 0 -42 6 -53 14 -17 13 -19 26 -16 148 4 192 1 184
75 192 62 6 107 32 93 54 -10 16 -376 13 -383 -4z"/>
<path d="M150 1180 c0 -33 68 -149 114 -195 65 -64 206 -135 206 -103 0 32
-64 143 -110 192 -64 67 -210 141 -210 106z"/>
<path d="M1260 1158 c-35 -17 -85 -52 -110 -77 -46 -46 -110 -158 -110 -193 0
-17 2 -17 52 2 121 46 202 127 248 248 19 49 19 52 2 52 -9 0 -46 -15 -82 -32z"/>
<path d="M192 853 c-33 -7 -23 -22 38 -65 82 -58 146 -78 243 -77 45 1 95 4
111 8 l29 6 -37 33 c-20 17 -65 46 -99 64 -56 29 -72 32 -162 34 -55 1 -110 0
-123 -3z"/>
<path d="M1085 847 c-55 -18 -125 -60 -159 -96 l-28 -29 47 -7 c25 -4 82 -5
125 -3 63 4 92 11 142 36 71 36 136 88 124 99 -14 14 -209 13 -251 0z"/>
<path d="M574 680 c-63 -9 -132 -39 -196 -86 -34 -26 -46 -40 -39 -47 18 -18
172 -21 230 -4 28 8 51 11 51 7 0 -5 -18 -24 -41 -42 l-41 -34 16 -37 c8 -20
18 -37 21 -37 21 0 100 69 132 115 21 30 41 54 45 55 4 0 26 -25 48 -55 38
-52 111 -115 132 -115 5 0 16 16 24 36 l15 37 -48 44 c-26 25 -40 42 -29 39
68 -22 116 -28 187 -24 44 3 84 9 90 15 13 13 -97 90 -166 114 -44 15 -81 19
-202 18 -81 0 -155 1 -163 4 -8 2 -38 1 -66 -3z"/>
</g>
</svg>
